<?xml version="1.0" standalone="no"?>
<!DOCTYPE svg PUBLIC "-//W3C//DTD SVG 20010904//EN"
 "http://www.w3.org/TR/2001/REC-SVG-20010904/DTD/svg10.dtd">
<svg version="1.0" xmlns="http://www.w3.org/2000/svg"
 width="449.000000pt" height="449.000000pt" viewBox="0 0 449.000000 449.000000"
 preserveAspectRatio="xMidYMid meet">

<g transform="translate(0.000000,449.000000) scale(0.100000,-0.100000)"
fill="#000000" stroke="none">
<path d="M2030 4480 c-120 -15 -196 -30 -335 -65 -170 -44 -278 -83 -403 -145
-56 -27 -104 -50 -107 -50 -7 0 -158 -91 -165 -99 -3 -4 -35 -26 -72 -50 -37
-23 -68 -46 -70 -49 -2 -4 -39 -37 -83 -74 -132 -109 -307 -300 -381 -413 -21
-33 -41 -62 -44 -65 -29 -28 -170 -298 -209 -399 -10 -25 -21 -55 -26 -66 -10
-25 -7 -16 -49 -169 -116 -424 -115 -777 1 -1195 19 -69 36 -130 37 -136 2 -5
7 -19 11 -30 5 -11 17 -42 27 -70 43 -112 188 -384 210 -393 5 -2 8 -9 8 -16
0 -7 8 -21 18 -32 9 -10 26 -32 36 -49 11 -16 48 -63 84 -103 35 -39 62 -72
59 -72 -8 0 173 -175 217 -209 21 -17 50 -43 65 -57 41 -41 235 -166 351 -226
164 -85 292 -134 460 -177 254 -64 268 -66 580 -66 309 0 331 2 560 62 74 19
144 37 155 39 36 7 219 87 325 142 115 60 308 184 355 229 17 15 48 42 70 58
52 40 200 188 244 245 19 25 45 56 58 69 40 41 167 239 225 351 55 106 135
289 142 325 2 11 20 81 39 155 20 74 41 167 49 205 18 97 18 613 0 710 -18 90
-90 374 -102 400 -5 11 -19 45 -31 75 -68 180 -232 456 -355 600 -140 164
-337 341 -493 444 -134 89 -434 237 -506 251 -11 3 -76 20 -145 40 -192 55
-337 76 -550 80 -102 2 -219 0 -260 -5z m428 -91 c224 -24 522 -108 712 -198
317 -151 606 -387 805 -656 67 -90 149 -221 159 -252 4 -13 13 -29 19 -35 33
-34 105 -208 157 -378 110 -356 128 -677 59 -1030 -121 -622 -487 -1140 -1029
-1460 -386 -227 -874 -337 -1295 -290 -283 32 -638 142 -830 257 -152 92 -193
118 -260 168 -42 31 -93 72 -113 90 -21 19 -52 46 -71 61 -96 79 -294 331
-385 489 -188 330 -296 724 -296 1079 0 350 97 723 272 1046 253 469 686 830
1198 1000 182 61 340 96 510 113 81 8 298 6 388 -4z"/>
<path d="M2101 4222 c-72 -39 -90 -129 -44 -221 21 -44 34 -57 71 -73 50 -22
109 -19 150 8 52 34 80 161 48 222 -29 55 -62 76 -129 80 -47 2 -70 -1 -96
-16z m136 -47 c65 -45 49 -191 -23 -209 -71 -18 -119 43 -115 147 2 62 85 99
138 62z"/>
<path d="M2405 4208 c-2 -13 -6 -84 -7 -158 -3 -133 -3 -135 19 -138 24 -4 27
3 38 91 5 39 10 47 23 43 17 -5 75 -9 100 -7 6 1 12 10 12 20 0 16 -9 21 -47
26 -27 3 -55 7 -63 9 -11 1 -14 12 -13 40 2 22 4 40 6 42 1 2 36 -2 76 -7 59
-8 76 -8 82 3 14 23 -13 36 -94 47 -114 16 -126 15 -132 -11z"/>
<path d="M1701 4166 c-46 -13 -87 -29 -91 -36 -9 -15 73 -257 94 -278 11 -11
24 -11 77 3 113 28 129 35 129 56 0 23 -24 24 -100 4 -30 -8 -58 -15 -62 -15
-8 0 -31 80 -25 86 2 3 33 12 68 21 76 18 89 28 69 48 -13 12 -24 12 -87 -4
l-72 -19 -12 35 c-6 19 -9 37 -6 39 3 3 37 14 75 23 81 21 92 27 92 47 0 20
-49 17 -149 -10z"/>
<path d="M2797 4113 c-33 -110 -60 -241 -54 -257 13 -34 41 -13 60 45 l19 56
57 -15 c48 -13 64 -13 89 -3 31 13 62 62 62 99 0 36 -42 72 -113 97 -96 35
-104 34 -120 -22z m131 -34 c27 -11 36 -31 28 -64 -5 -20 -13 -25 -39 -25 -45
0 -77 10 -77 24 0 6 5 28 11 49 11 40 11 40 77 16z"/>
<path d="M1393 4060 c-77 -35 -104 -119 -63 -199 61 -120 208 -140 270 -38 24
38 26 80 5 97 -24 20 -45 4 -45 -35 0 -76 -86 -103 -141 -44 -59 63 -60 151
-3 178 34 15 43 14 88 -10 33 -18 41 -19 53 -7 18 19 7 45 -28 63 -38 20 -85
18 -136 -5z"/>
<path d="M3094 3918 c-122 -119 -128 -128 -109 -154 13 -18 15 -18 48 14 l34
33 55 -27 55 -27 -5 -47 c-3 -35 -1 -48 10 -53 30 -11 41 13 59 134 28 187 26
210 -19 224 -20 6 -38 -8 -128 -97z m101 -47 c-4 -34 -9 -61 -11 -61 -6 0 -67
31 -73 36 -3 3 15 24 39 49 24 25 46 43 48 40 2 -2 1 -31 -3 -64z"/>
<path d="M1163 3943 c-22 -8 -14 -30 42 -114 30 -45 54 -83 53 -84 -2 -2 -52
17 -113 41 -60 23 -119 43 -130 43 -25 1 -45 -17 -45 -39 0 -25 178 -230 199
-230 39 0 30 30 -30 106 -33 42 -59 77 -57 79 2 2 55 -17 118 -41 112 -43 143
-47 153 -20 7 18 -144 260 -163 263 -8 1 -21 -1 -27 -4z"/>
<path d="M3399 3873 c-19 -22 -135 -212 -144 -235 -5 -12 13 -31 69 -73 73
-55 106 -65 106 -31 0 8 -24 33 -52 56 -29 23 -52 46 -50 51 1 5 32 54 68 108
37 56 64 107 62 118 -4 24 -40 28 -59 6z"/>
<path d="M1980 3796 c-324 -61 -636 -229 -860 -463 -140 -145 -239 -294 -313
-468 -101 -237 -126 -359 -127 -620 -1 -244 21 -356 111 -585 75 -190 178
-347 328 -503 78 -81 269 -237 290 -237 5 0 11 -4 13 -9 4 -11 170 -101 186
-101 6 0 36 -11 65 -25 67 -30 236 -79 337 -96 98 -18 363 -18 470 0 47 7 136
29 198 47 316 95 542 243 779 511 82 94 182 263 247 418 32 77 81 249 98 345
16 96 16 372 -1 470 -17 100 -66 270 -96 337 -14 29 -25 59 -25 65 0 6 -21 50
-46 97 -64 120 -195 290 -301 392 -131 126 -319 256 -432 299 -29 12 -73 29
-96 40 -59 27 -205 69 -300 86 -98 17 -431 17 -525 0z m545 -105 c90 -19 195
-49 250 -71 103 -41 132 -54 145 -65 8 -7 46 -29 83 -50 89 -49 227 -156 303
-236 74 -78 177 -216 211 -283 14 -27 31 -55 37 -62 24 -23 98 -226 122 -334
59 -263 59 -427 -1 -696 -28 -124 -95 -296 -142 -366 -17 -24 -32 -50 -35 -59
-13 -35 -161 -219 -225 -280 -254 -239 -527 -367 -881 -411 -113 -14 -301 -4
-426 22 -54 11 -108 22 -120 24 -36 7 -165 56 -230 88 -270 131 -484 326 -636
580 -93 156 -140 279 -182 476 -32 153 -32 401 1 555 12 59 29 123 36 141 8
18 16 44 19 58 14 77 103 249 203 392 65 94 210 241 309 312 132 96 321 196
393 209 14 2 51 13 81 23 31 11 98 27 150 35 52 9 106 19 120 21 62 11 319 -3
415 -23z"/>
<path d="M1282 2339 l3 -991 80 -42 c44 -22 96 -51 115 -62 19 -12 85 -47 145
-79 61 -32 133 -70 160 -85 209 -114 355 -190 363 -190 6 0 12 -3 14 -7 2 -5
22 -18 45 -31 l42 -23 62 33 c92 49 148 79 209 114 30 18 80 45 110 62 30 16
138 75 239 131 101 55 188 101 192 101 5 0 9 5 9 10 0 6 5 10 11 10 6 0 45 19
85 42 l74 42 0 978 0 978 -980 0 -980 0 2 -991z m598 741 l0 -220 -285 0 -285
0 0 220 0 220 285 0 285 0 0 -220z m750 0 l0 -220 -365 0 -365 0 0 220 0 220
365 0 365 0 0 -220z m580 0 l0 -220 -275 0 -275 0 0 220 0 220 275 0 275 0 0
-220z m-10 -605 c0 -314 -1 -334 -17 -328 -10 3 -25 12 -33 18 -8 7 -32 12
-52 12 -37 0 -48 -9 -28 -22 7 -4 7 -13 0 -26 -13 -23 -35 -26 -26 -3 3 8 2
12 -4 9 -11 -7 -50 33 -50 52 0 16 2 16 34 3 30 -11 36 4 7 19 -10 6 -24 31
-31 56 -11 40 -18 48 -58 65 -24 11 -54 20 -66 20 -27 0 -46 18 -46 42 0 10
-4 18 -10 18 -10 0 3 -44 19 -65 5 -5 9 -25 9 -42 0 -18 8 -43 16 -55 l16 -22
1 24 c1 14 0 37 -1 52 -2 33 16 45 38 25 9 -8 27 -18 39 -21 28 -9 44 -60 29
-93 -6 -13 -14 -23 -18 -23 -4 0 -4 -7 -1 -17 4 -10 2 -14 -5 -9 -6 3 -16 -3
-22 -14 -12 -23 -50 -27 -50 -5 0 8 -4 15 -10 15 -5 0 -10 7 -10 15 0 18 17
20 23 3 2 -7 7 -10 11 -7 3 3 -2 15 -12 27 -21 24 -32 20 -32 -15 0 -17 -5
-22 -20 -20 -11 2 -26 9 -32 15 -9 9 -6 12 15 12 30 0 33 5 15 24 -14 13 -101
10 -93 -4 3 -4 -5 -10 -17 -14 -27 -7 -49 10 -25 20 19 7 23 24 7 24 -6 0 -21
9 -33 21 -12 11 -30 18 -39 16 -9 -3 -25 1 -35 9 -10 7 -26 14 -35 14 -12 0
-15 5 -11 17 5 12 2 15 -10 10 -11 -4 -20 3 -31 23 -8 17 -10 30 -5 30 5 0 9
5 9 10 0 16 -23 11 -50 -10 -19 -15 -22 -22 -12 -29 11 -6 9 -9 -7 -14 -11 -2
-22 0 -24 7 -3 8 -14 6 -38 -6 -27 -13 -29 -16 -11 -15 12 1 22 5 22 9 0 4 5
8 11 8 5 0 7 -4 4 -10 -3 -5 -1 -10 6 -10 13 0 49 -38 49 -52 0 -4 8 -9 18 -9
15 -1 15 -2 0 -6 -9 -2 -19 -12 -21 -21 -3 -10 -5 -5 -6 11 -1 20 -6 27 -22
27 -19 0 -20 -2 -8 -17 12 -15 12 -16 -3 -10 -13 5 -18 1 -18 -13 0 -13 7 -20
18 -20 35 0 84 -73 56 -84 -8 -3 -14 1 -14 9 0 11 -13 15 -47 16 l-48 2 40 7
c45 8 29 14 -27 11 -22 -2 -38 2 -38 8 0 6 -8 11 -17 12 -15 0 -15 2 2 9 18 8
19 9 1 9 -13 1 -16 6 -12 18 9 21 -13 34 -36 22 -12 -6 -18 -6 -18 1 0 10 20
15 53 12 11 -1 15 2 11 9 -4 7 1 10 12 7 23 -4 31 -37 12 -49 -8 -5 -8 -9 -2
-9 6 0 16 6 21 13 15 17 12 47 -4 47 -7 0 -13 5 -13 11 0 6 -8 9 -18 7 -10 -3
-27 1 -37 8 -17 13 -16 14 9 23 39 16 31 30 -14 25 -43 -4 -44 0 -11 38 11 13
17 14 22 6 11 -18 15 -9 22 47 6 43 5 48 -7 33 -7 -10 -21 -18 -30 -18 -21 0
-21 -16 1 -28 14 -8 13 -12 -11 -27 -15 -10 -30 -15 -34 -11 -3 4 0 11 8 16
14 9 11 16 -38 68 -17 19 -10 38 13 34 15 -3 17 1 12 25 -3 15 -9 36 -12 46
-11 28 8 20 54 -23 23 -22 48 -40 54 -39 7 0 1 8 -13 17 -13 9 -35 29 -49 45
-28 31 -54 35 -73 10 -23 -29 -139 -142 -151 -147 -7 -2 6 -4 28 -3 38 2 40 1
40 -28 1 -16 -5 -36 -12 -43 -7 -7 -10 -19 -7 -27 6 -15 58 -45 79 -45 7 0 12
-8 11 -17 0 -10 9 -20 24 -24 14 -4 18 -7 10 -8 -8 -1 -30 3 -48 8 -18 6 -32
6 -32 1 0 -15 37 -31 54 -24 11 4 16 0 16 -14 0 -12 4 -23 9 -26 10 -6 24 21
17 33 -3 4 11 5 30 3 19 -2 34 -8 34 -14 0 -5 -10 -6 -22 -3 -16 6 -20 4 -15
-8 3 -9 0 -20 -7 -26 -13 -11 -56 -4 -56 10 0 18 -18 9 -23 -11 -4 -16 -2 -20
12 -15 11 3 32 -8 57 -30 21 -19 42 -35 46 -35 4 0 5 -9 3 -21 -3 -15 0 -19
10 -15 18 7 20 -20 3 -31 -7 -4 -29 -8 -48 -9 -19 -1 -47 -4 -61 -8 -23 -5
-26 -3 -24 17 2 12 7 31 11 41 6 15 4 18 -9 13 -8 -3 -21 1 -27 9 -10 11 -9
14 4 14 9 0 16 8 16 21 0 11 -4 17 -10 14 -5 -3 -10 0 -10 8 0 8 -7 17 -15 21
-8 3 -15 1 -15 -4 0 -5 -13 -8 -29 -7 -18 1 -27 7 -24 15 3 6 -5 21 -18 32
-20 16 -22 21 -9 29 8 6 11 13 7 17 -4 4 -2 14 5 21 9 11 9 16 -1 23 -9 5 -10
10 -3 14 6 4 9 13 5 21 -3 8 0 15 6 15 6 0 11 9 11 20 0 11 -4 20 -10 20 -12
0 -43 -46 -38 -57 2 -4 -6 -18 -19 -30 -13 -12 -23 -19 -23 -15 0 4 -5 -1 -11
-10 -15 -27 -43 -21 -58 12 -15 36 -8 75 16 84 21 9 46 -21 39 -46 -2 -10 0
-21 5 -24 8 -4 14 31 7 39 -2 1 10 23 25 49 l28 47 -52 -26 c-29 -14 -78 -46
-110 -70 -61 -46 -98 -51 -119 -14 -5 9 -10 12 -10 7 0 -5 -7 -3 -15 4 -12 10
-18 10 -30 0 -8 -7 -30 -16 -48 -20 l-32 -8 37 -1 c20 -1 40 4 43 9 10 16 35
12 35 -6 0 -8 5 -12 10 -9 6 3 10 2 10 -3 0 -7 -74 -52 -86 -52 -2 0 -1 7 2
15 4 8 1 15 -5 15 -6 0 -11 -7 -11 -15 0 -8 -5 -15 -11 -15 -6 0 -9 -9 -6 -20
4 -17 2 -20 -13 -15 -10 3 -21 1 -25 -5 -3 -6 -12 -7 -18 -3 -8 5 -8 2 1 -9
10 -12 9 -18 -3 -28 -12 -10 -15 -10 -15 3 0 9 -7 20 -16 25 -15 8 -15 12 -3
29 14 20 19 23 41 23 6 0 9 3 5 6 -3 4 0 13 8 21 16 16 20 33 7 33 -4 0 -14
-9 -22 -20 -8 -11 -19 -20 -26 -20 -6 0 -17 -11 -24 -25 -10 -18 -16 -22 -22
-13 -6 10 -8 10 -8 1 0 -7 -11 -24 -25 -38 -17 -20 -34 -27 -60 -27 -47 0 -54
8 -22 23 15 7 35 29 45 50 20 39 32 41 32 6 0 -16 2 -17 15 -7 14 12 13 15 -4
31 -28 26 -35 24 -49 -13 -12 -33 -105 -108 -118 -95 -8 8 -9 56 -6 375 l2
272 940 0 940 0 0 -335z m-697 -140 c-7 -21 -13 -19 -13 6 0 11 4 18 10 14 5
-3 7 -12 3 -20z m-593 -94 c-1 -13 -30 34 -30 48 0 9 7 3 15 -13 8 -15 15 -31
15 -35z m-4 -38 c-10 -10 -19 5 -10 18 6 11 8 11 12 0 2 -7 1 -15 -2 -18z
m-400 -22 c-4 -5 -1 -12 4 -14 6 -3 5 -4 -2 -3 -15 3 -23 26 -8 26 6 0 9 -4 6
-9z m234 -10 c14 -27 14 -49 -1 -34 -6 6 -19 9 -28 6 -13 -5 -12 -2 4 17 18
21 18 23 2 17 -11 -4 -16 -3 -12 3 10 16 23 12 35 -9z m985 -7 c19 -16 19 -16
-5 -9 -22 7 -23 6 -11 -9 12 -14 11 -16 -8 -16 -16 0 -20 6 -19 25 3 29 14 31
43 9z m-1345 -9 c0 -19 -46 -49 -61 -39 -9 5 -3 14 17 31 34 27 44 29 44 8z
m391 -8 c-10 -9 -11 -8 -5 6 3 10 9 15 12 12 3 -3 0 -11 -7 -18z m329 -7 c0
-5 -2 -10 -4 -10 -3 0 -8 5 -11 10 -3 6 -1 10 4 10 6 0 11 -4 11 -10z m864 -5
c-7 -16 -24 -21 -24 -6 0 8 7 13 27 20 1 1 0 -6 -3 -14z m234 -8 c7 -6 10 -19
6 -31 -9 -29 -10 -29 -31 -17 -15 7 -20 7 -20 -3 0 -6 9 -13 20 -13 27 -3 34
-16 29 -58 -4 -30 -8 -35 -37 -41 -19 -3 -32 -11 -29 -17 3 -8 -15 -13 -53
-14 l-58 -2 34 17 c36 18 59 51 27 39 -10 -4 -24 -7 -32 -7 -9 0 -12 -4 -9
-10 3 -5 2 -10 -4 -10 -24 0 -19 20 6 26 15 4 34 14 42 21 8 8 22 12 33 10 10
-3 16 -1 12 4 -3 5 1 9 8 10 10 0 10 2 0 6 -6 2 -10 9 -6 14 3 5 -5 9 -18 10
-16 0 -19 2 -8 7 15 7 20 35 8 47 -4 4 -1 13 5 20 13 14 52 10 75 -8z m-321
-21 c-3 -6 -10 -10 -16 -8 -6 1 -11 -2 -11 -8 0 -5 -4 -10 -10 -10 -11 0 -14
33 -4 42 9 10 45 -4 41 -16z m-1308 -7 c-16 -10 -23 -4 -14 10 3 6 11 8 17 5
6 -4 5 -9 -3 -15z m1231 11 c0 -5 -5 -10 -11 -10 -5 0 -7 5 -4 10 3 6 8 10 11
10 2 0 4 -4 4 -10z m-1280 -10 c0 -5 -2 -10 -4 -10 -3 0 -8 5 -11 10 -3 6 -1
10 4 10 6 0 11 -4 11 -10z m960 6 c0 -3 -4 -8 -10 -11 -5 -3 -10 -1 -10 4 0 6
5 11 10 11 6 0 10 -2 10 -4z m-1010 -37 c0 -4 -7 -12 -16 -19 -12 -11 -18 -11
-30 2 -8 8 -12 21 -9 30 5 13 11 13 31 4 13 -6 24 -14 24 -17z m534 16 c10 -7
16 -17 15 -22 -2 -4 -14 2 -26 15 -25 24 -18 29 11 7z m1066 5 c0 -5 -5 -10
-11 -10 -5 0 -7 5 -4 10 3 6 8 10 11 10 2 0 4 -4 4 -10z m-1715 -37 c-7 -38
-12 -50 -19 -42 -7 9 7 79 16 79 6 0 8 -14 3 -37z m800 27 c-3 -5 -10 -10 -16
-10 -5 0 -9 5 -9 10 0 6 7 10 16 10 8 0 12 -4 9 -10z m306 -8 c-7 -2 -18 1
-23 6 -8 8 -4 9 13 5 13 -4 18 -8 10 -11z m66 3 c0 -8 -4 -15 -9 -15 -4 0 -8
7 -8 15 0 8 4 15 8 15 5 0 9 -7 9 -15z m142 -9 c-8 -8 -13 -8 -16 1 -2 7 -12
9 -21 6 -13 -4 -14 -3 -3 5 19 14 56 3 40 -12z m341 0 c0 -3 -4 -8 -10 -11 -5
-3 -10 -1 -10 4 0 6 5 11 10 11 6 0 10 -2 10 -4z m50 -33 c0 -25 -15 -12 -17
14 -1 19 1 22 8 12 5 -8 9 -20 9 -26z m-1643 2 c9 -20 8 -25 -2 -25 -7 0 -16
7 -19 16 -15 40 3 47 21 9z m1053 9 c0 -9 8 -14 18 -13 48 4 59 -20 17 -39
-14 -6 -25 -17 -25 -23 0 -7 -10 -5 -26 6 -24 16 -26 16 -39 -2 -10 -13 -10
-20 -2 -25 8 -5 7 -8 -4 -8 -9 0 -19 9 -22 20 -3 11 -10 20 -17 20 -6 0 -8 -4
-5 -10 3 -5 -1 -10 -9 -10 -8 0 -18 5 -21 11 -4 6 -13 8 -21 5 -9 -3 -6 6 7
24 26 34 48 45 63 30 16 -16 44 -12 56 10 13 24 30 26 30 4z m310 6 c0 -5 -2
-10 -4 -10 -3 0 -8 5 -11 10 -3 6 -1 10 4 10 6 0 11 -4 11 -10z m146 -4 c15 4
24 2 24 -5 0 -7 15 -10 43 -6 25 3 33 2 19 -3 -13 -4 -23 -11 -22 -17 0 -5 -8
-10 -19 -11 -10 -1 -23 -4 -28 -7 -6 -4 -22 -1 -37 6 -26 12 -35 27 -16 27 5
0 8 6 6 13 -1 6 -1 9 1 5 3 -5 16 -5 29 -2z m-1529 -52 c-9 -9 -28 6 -21 18 4
6 10 6 17 -1 6 -6 8 -13 4 -17z m-57 -25 c0 -6 -4 -7 -10 -4 -5 3 -10 11 -10
16 0 6 5 7 10 4 6 -3 10 -11 10 -16z m1250 -29 c25 -15 -1 -29 -40 -21 -32 6
-34 8 -15 19 24 14 36 15 55 2z m-573 -6 c-3 -3 -12 -4 -19 -1 -8 3 -5 6 6 6
11 1 17 -2 13 -5z m239 -7 c-3 -24 -17 -36 -33 -30 -12 5 -15 2 -10 -10 3 -9
2 -17 -3 -17 -6 0 -10 6 -10 14 0 8 -6 17 -12 19 -8 3 -5 6 6 6 11 1 16 6 13
15 -4 9 4 13 23 14 16 0 27 -4 26 -11z m709 3 c-3 -5 -12 -10 -18 -10 -7 0 -6
4 3 10 19 12 23 12 15 0z m-1355 -10 c0 -5 -2 -10 -4 -10 -3 0 -8 5 -11 10 -3
6 -1 10 4 10 6 0 11 -4 11 -10z m547 4 c-3 -3 -12 -4 -19 -1 -8 3 -5 6 6 6 11
1 17 -2 13 -5z m3 -24 c-8 -5 -19 -10 -25 -10 -5 0 -3 5 5 10 8 5 20 10 25 10
6 0 3 -5 -5 -10z m1026 -5 c-17 -13 -18 -15 -3 -15 10 0 17 -8 17 -20 0 -13
-7 -20 -20 -20 -13 0 -20 -7 -20 -20 0 -11 5 -20 11 -20 5 0 7 5 4 10 -3 6 1
10 9 10 12 0 16 -10 16 -40 0 -34 -3 -40 -21 -40 -11 0 -18 4 -14 9 3 5 1 12
-5 16 -5 3 -10 15 -10 26 0 24 -16 25 -29 2 -9 -17 -11 -17 -25 2 -23 30 -20
72 4 80 11 4 17 11 14 17 -4 6 1 8 13 4 11 -4 31 -2 44 3 34 14 37 13 15 -4z
m-1795 -15 c-13 -11 -28 -20 -35 -19 -7 0 -7 2 2 6 6 2 12 11 12 19 0 8 10 14
23 14 l22 -1 -24 -19z m1426 -5 l32 -20 -37 -17 c-36 -17 -37 -17 -51 2 -7 11
-22 20 -32 20 -25 0 -33 17 -13 28 25 14 64 8 101 -13z m-994 -2 c-7 -2 -13
-8 -13 -13 0 -4 6 -7 13 -6 6 0 13 -3 15 -9 5 -15 -29 -19 -38 -4 -11 17 -1
39 19 38 10 0 11 -2 4 -6z m327 -39 c0 4 7 1 15 -8 17 -17 19 -26 6 -26 -13 0
-71 62 -71 75 0 6 11 -3 25 -19 14 -16 25 -26 25 -22z m130 31 c0 -8 -4 -15
-8 -15 -5 0 -9 7 -9 15 0 8 4 15 9 15 4 0 8 -7 8 -15z m88 0 c1 -1 0 -9 -4
-18 -6 -18 -34 -31 -34 -17 0 6 -7 10 -15 10 -18 0 -19 6 -2 25 10 11 41 12
55 0z m-723 -5 c7 -11 -43 -46 -52 -36 -3 3 -1 6 5 6 7 0 12 9 12 20 0 20 24
28 35 10z m896 -23 c-8 -8 -14 -8 -23 2 -11 10 -9 11 5 5 10 -3 17 -3 16 2 -3
18 3 29 8 16 3 -8 0 -19 -6 -25z m459 24 c0 -10 -26 -9 -36 2 -4 4 2 7 14 7
12 0 22 -4 22 -9z m-1590 -11 c0 -5 -2 -10 -4 -10 -3 0 -8 5 -11 10 -3 6 -1
10 4 10 6 0 11 -4 11 -10z m610 -15 c0 -17 -4 -23 -15 -19 -8 4 -17 -1 -21
-10 -3 -9 -10 -16 -14 -16 -5 0 -3 11 3 24 7 13 15 22 19 20 5 -3 8 2 8 10 0
9 5 16 10 16 6 0 10 -11 10 -25z m-473 -16 c-16 -26 -30 -24 -22 4 5 17 4 18
-4 7 -5 -8 -13 -11 -18 -7 -11 11 16 25 38 20 15 -4 16 -8 6 -24z m343 27 c0
-3 -4 -8 -10 -11 -5 -3 -10 -1 -10 4 0 6 5 11 10 11 6 0 10 -2 10 -4z m623
-40 c9 -3 17 -11 16 -18 0 -9 -2 -10 -5 -1 -3 7 -11 10 -18 7 -7 -3 -21 5 -32
17 -19 22 -19 22 1 11 11 -6 28 -13 38 -16z m425 15 c18 -6 30 -6 27 -1 -3 4
6 7 19 6 14 0 22 -6 19 -13 -3 -7 -1 -13 4 -13 6 0 10 -14 11 -31 1 -25 -2
-28 -14 -18 -11 9 -14 8 -14 -3 0 -8 5 -19 12 -26 17 -17 3 -26 -21 -13 -13 7
-22 8 -26 1 -11 -18 -35 -11 -35 10 0 11 5 20 11 20 5 0 7 5 4 10 -4 6 6 10
22 10 l28 1 -25 14 c-14 8 -36 15 -50 15 -14 1 -19 4 -12 7 10 4 10 8 1 19
-13 16 -6 17 39 5z m-1333 -21 c3 -5 1 -10 -4 -10 -6 0 -11 5 -11 10 0 6 2 10
4 10 3 0 8 -4 11 -10z m732 -12 c-3 -8 -6 -5 -6 6 -1 11 2 17 5 13 3 -3 4 -12
1 -19z m280 7 c0 -8 -8 -15 -18 -15 -13 0 -16 -6 -12 -22 5 -23 5 -23 -10 -3
-24 29 -22 48 4 40 15 -5 19 -4 15 4 -4 6 -1 11 7 11 7 0 14 -7 14 -15z m36
-6 c-3 -11 2 -19 15 -23 23 -8 54 2 47 15 -3 4 -12 6 -20 2 -16 -5 -21 12 -6
21 15 9 43 -32 51 -73 5 -29 4 -41 -5 -45 -7 -2 -15 4 -18 15 -3 10 -12 19
-21 19 -24 0 -66 41 -66 65 0 12 6 22 14 22 8 0 11 -7 9 -18z m217 11 c0 -5
-7 -10 -15 -10 -8 0 -15 5 -15 10 0 6 7 10 15 10 8 0 15 -4 15 -10z m-72 -29
c-2 -5 6 -16 17 -25 17 -12 18 -17 7 -28 -11 -11 -15 -10 -25 2 -7 9 -20 14
-29 12 -10 -2 -18 2 -18 8 0 6 4 9 9 5 6 -3 15 4 21 15 11 21 22 27 18 11z
m314 -65 c3 -16 1 -23 -7 -19 -7 2 -11 13 -8 24 7 25 10 24 15 -5z m-1529 -6
c3 -11 1 -18 -4 -14 -5 3 -9 12 -9 20 0 20 7 17 13 -6z m1602 10 c-3 -5 -1
-10 5 -10 6 0 8 -5 5 -10 -4 -6 -11 -8 -16 -5 -12 8 -11 35 2 35 5 0 7 -4 4
-10z m-1499 -25 c1 -8 -3 -18 -8 -22 -7 -3 -8 -1 -4 5 4 7 1 12 -6 13 -10 0
-10 2 0 6 6 2 9 10 5 16 -3 7 -2 8 2 4 5 -4 10 -14 11 -22z m-136 5 c0 -5 -5
-10 -11 -10 -5 0 -7 5 -4 10 3 6 8 10 11 10 2 0 4 -4 4 -10z m780 -8 c0 -10
-6 -26 -13 -36 -12 -16 -13 -14 -9 18 4 37 22 51 22 18z m660 -17 c0 -2 -10
-10 -22 -16 -21 -11 -22 -11 -9 4 13 16 31 23 31 12z m-1123 -27 c-3 -8 -6 -5
-6 6 -1 11 2 17 5 13 3 -3 4 -12 1 -19z m-27 -14 c0 -8 -4 -14 -10 -14 -5 0
-10 2 -10 4 0 2 -3 12 -6 20 -5 12 -2 15 10 10 9 -3 16 -12 16 -20z m940 11
c0 -8 -4 -15 -10 -15 -5 0 -7 7 -4 15 4 8 8 15 10 15 2 0 4 -7 4 -15z m-167
-40 c-3 -20 -1 -41 6 -48 6 -8 8 -17 4 -20 -3 -4 3 -7 15 -7 11 0 22 4 24 8 4
12 78 23 78 11 0 -5 15 -10 33 -11 18 -1 7 -4 -28 -8 l-60 -7 55 -1 c90 -3
223 10 208 20 -8 5 16 8 62 7 41 -1 80 -6 87 -11 7 -5 33 -10 58 -10 41 0 45
-2 45 -24 0 -18 -6 -24 -22 -25 l-23 -2 22 -4 c24 -5 38 -33 29 -61 -3 -10
-48 -40 -98 -66 -51 -27 -105 -57 -120 -68 -14 -10 -28 -18 -31 -18 -3 0 -36
-17 -74 -39 -37 -21 -97 -54 -133 -74 -36 -19 -108 -59 -160 -88 -140 -77
-249 -137 -297 -161 -46 -24 -52 -22 -133 26 -24 14 -202 111 -340 184 -213
112 -461 251 -482 270 -10 8 -18 26 -18 40 0 24 1 25 62 18 56 -5 60 -5 42 9
-10 8 -14 15 -9 15 6 1 17 3 25 5 9 1 43 -2 75 -7 120 -20 340 -35 365 -25 14
5 162 10 330 11 286 1 364 8 314 27 -10 4 -47 8 -80 8 -45 1 -68 6 -85 20 -16
13 -21 23 -14 29 13 12 185 23 185 12 0 -5 -6 -10 -12 -13 -7 -2 -4 -3 7 -1
11 2 30 4 43 4 13 0 20 4 17 10 -3 6 -1 10 5 10 8 0 10 13 5 40 -7 40 0 64 15
55 5 -3 6 -21 3 -40z m-893 21 c0 -3 -4 -8 -10 -11 -5 -3 -10 -1 -10 4 0 6 5
11 10 11 6 0 10 -2 10 -4z m-300 -16 c0 -5 -7 -10 -16 -10 -8 0 -12 5 -9 10 3
6 10 10 16 10 5 0 9 -4 9 -10z m-52 -37 c-3 -15 3 -17 36 -15 24 3 36 0 32 -6
-3 -6 -23 -9 -44 -7 -20 1 -45 -1 -54 -6 -10 -6 -18 -6 -18 -1 0 11 33 52 43
52 4 0 7 -8 5 -17z m485 -31 c-7 -2 -11 -8 -7 -13 4 -7 -31 4 -54 17 -1 0 0 8
3 16 4 9 14 14 25 11 10 -3 21 1 26 9 6 9 10 6 14 -12 4 -16 2 -26 -7 -28z
m-173 18 c0 -15 -7 -20 -26 -20 l-26 0 23 20 c30 24 29 24 29 0z m803 3 c-13
-2 -35 -2 -50 0 -16 2 -5 4 22 4 28 0 40 -2 28 -4z m-929 -18 c-10 -8 -26 -14
-34 -14 -9 0 -4 6 10 14 33 19 49 19 24 0z m374 -12 c-10 -2 -26 -2 -35 0 -10
3 -2 5 17 5 19 0 27 -2 18 -5z m281 -3 c46 1 53 -1 43 -13 -8 -9 -29 -13 -64
-11 -29 1 -70 3 -92 3 -34 1 -37 3 -25 17 9 11 22 14 48 10 20 -4 60 -6 90 -6z
m-199 -20 c11 -7 6 -10 -20 -10 -26 0 -31 3 -20 10 8 5 17 10 20 10 3 0 12 -5
20 -10z m177 -16 c-3 -3 -12 -4 -19 -1 -8 3 -5 6 6 6 11 1 17 -2 13 -5z m-70
-11 c-4 -3 1 -12 11 -19 16 -12 16 -13 0 -14 -9 0 -23 3 -32 6 -12 5 -13 9 -3
20 7 7 16 13 21 14 5 0 6 -3 3 -7z m66 -10 c-7 -2 -19 -2 -25 0 -7 3 -2 5 12
5 14 0 19 -2 13 -5z m-823 -13 c0 -13 -11 -13 -30 0 -12 8 -11 10 8 10 12 0
22 -4 22 -10z"/>
<path d="M1740 3221 c1 -20 21 -46 38 -47 34 -3 37 -4 22 -14 -13 -9 -13 -10
0 -10 8 0 21 4 29 9 11 7 9 10 -8 16 -11 3 -21 11 -21 16 0 5 -12 9 -27 10
-27 0 -27 1 -5 9 29 12 28 28 -3 28 -17 0 -25 -6 -25 -17z"/>
<path d="M1729 3158 c-3 -67 -30 -125 -51 -112 -4 3 -8 -1 -8 -8 0 -8 -5 -6
-11 5 -8 14 -14 16 -25 6 -8 -6 -14 -8 -14 -4 0 4 -8 -2 -17 -13 -10 -12 -30
-24 -45 -28 -27 -6 -32 0 -27 32 1 10 -24 23 -34 17 -4 -3 -6 -12 -3 -20 5
-11 1 -13 -15 -8 -12 4 -19 3 -16 -2 3 -5 -3 -28 -14 -52 -22 -49 -23 -61 -9
-61 6 0 10 8 10 18 0 54 75 85 102 42 7 -11 19 -20 27 -20 11 0 11 3 1 15 -18
22 3 43 38 37 25 -3 28 -7 25 -40 l-2 -37 10 40 c14 57 28 60 72 14 22 -22 42
-37 46 -34 3 4 -2 11 -11 16 -34 19 -40 45 -18 81 11 18 20 47 20 65 0 17 5
35 11 39 8 4 7 9 -2 15 -20 13 -39 11 -40 -3z"/>
<path d="M1442 3088 c-17 -17 -15 -38 3 -38 16 0 38 34 28 44 -9 9 -18 7 -31
-6z"/>
<path d="M1651 2894 c0 -11 3 -14 6 -6 3 7 2 16 -1 19 -3 4 -6 -2 -5 -13z"/>
<path d="M2170 3246 c0 -2 7 -6 15 -10 8 -3 15 -1 15 4 0 6 -7 10 -15 10 -8 0
-15 -2 -15 -4z"/>
<path d="M2416 3235 c4 -8 7 -15 9 -15 2 0 5 7 9 15 3 9 0 15 -9 15 -9 0 -12
-6 -9 -15z"/>
<path d="M2227 3084 c3 -8 0 -14 -7 -14 -6 0 -9 -4 -6 -9 3 -4 17 -6 31 -4 13
3 22 9 19 14 -3 5 0 9 7 9 21 0 2 11 -24 14 -18 2 -24 -1 -20 -10z"/>
<path d="M2132 3063 c-6 -2 -10 -9 -7 -14 4 -5 -1 -6 -10 -3 -12 5 -16 2 -13
-11 2 -10 -4 -20 -12 -22 -12 -4 -12 -3 -1 5 10 7 10 11 1 17 -12 7 -60 -31
-60 -48 0 -6 -6 -18 -14 -26 -7 -9 -17 -27 -20 -41 -7 -23 -6 -24 7 -7 10 12
16 14 19 6 5 -15 128 -20 128 -5 0 7 3 7 8 -1 4 -6 19 -9 35 -6 21 4 25 8 15
14 -10 7 -10 9 0 9 6 0 12 7 12 15 0 8 6 15 13 15 16 0 40 -38 32 -50 -4 -6 1
-10 9 -10 10 0 13 6 10 15 -5 11 1 15 21 15 14 0 24 -4 21 -9 -3 -5 3 -11 14
-14 22 -6 28 8 8 16 -7 3 1 6 17 7 17 1 37 3 45 4 8 1 30 -4 48 -11 21 -8 32
-9 32 -1 0 6 11 8 25 6 16 -4 22 -1 17 6 -4 6 -7 13 -7 16 0 3 -10 19 -23 35
-16 21 -34 30 -64 34 -23 3 -43 12 -44 19 -1 7 0 8 3 2 2 -5 16 -10 29 -10 14
0 23 4 19 10 -3 5 -13 6 -22 3 -10 -4 -14 -2 -10 4 15 24 -26 7 -44 -19 -20
-27 -59 -39 -59 -17 0 8 -6 7 -17 -2 -11 -10 -14 -10 -9 -1 4 6 2 12 -3 12 -6
0 -11 -5 -11 -11 0 -6 -9 -1 -21 12 -20 24 -20 24 -9 2 6 -13 8 -23 4 -23 -4
0 1 -10 12 -22 14 -17 15 -20 2 -9 -9 7 -23 9 -29 5 -8 -5 -9 -3 -4 6 5 9 4
11 -4 6 -7 -5 -16 -19 -21 -32 -5 -13 -14 -24 -20 -24 -6 0 -8 5 -5 10 3 6 3
15 -1 21 -4 8 -13 4 -25 -12 -10 -13 -19 -19 -19 -13 0 6 9 19 20 29 11 10 17
21 14 26 -5 9 17 49 28 49 5 0 8 -7 8 -16 0 -8 -4 -13 -9 -9 -16 9 -20 -9 -5
-23 11 -10 15 -8 24 7 14 27 13 40 -5 58 -12 12 -19 12 -30 3 -8 -7 -13 -16
-10 -20 3 -5 1 -11 -4 -14 -5 -4 -8 5 -6 19 2 25 0 27 -23 18z m5 -47 c-3 -7
-1 -18 4 -23 5 -5 1 -15 -11 -25 -18 -16 -19 -16 -25 3 -4 13 0 28 11 40 20
22 28 24 21 5z m278 -16 c3 -5 2 -10 -4 -10 -5 0 -13 5 -16 10 -3 6 -2 10 4
10 5 0 13 -4 16 -10z m-1 -29 c15 -6 16 -9 5 -13 -8 -3 -20 1 -27 8 -14 15 -7
17 22 5z m-330 -16 c3 -8 12 -15 21 -15 13 0 13 -2 3 -14 -16 -16 -41 -9 -34
10 3 8 1 14 -4 14 -6 0 -10 5 -10 10 0 15 17 12 24 -5z m306 -5 c0 -5 -4 -10
-10 -10 -5 0 -10 5 -10 10 0 6 5 10 10 10 6 0 10 -4 10 -10z m90 0 c0 -5 -2
-10 -4 -10 -3 0 -8 5 -11 10 -3 6 -1 10 4 10 6 0 11 -4 11 -10z"/>
<path d="M2115 2980 c-3 -6 1 -7 9 -4 18 7 21 14 7 14 -6 0 -13 -4 -16 -10z"/>
<path d="M2230 2935 c0 -8 4 -15 10 -15 5 0 7 7 4 15 -4 8 -8 15 -10 15 -2 0
-4 -7 -4 -15z"/>
<path d="M2780 3234 c0 -8 9 -14 20 -14 11 0 20 6 20 13 0 7 -9 13 -20 14 -11
1 -20 -4 -20 -13z"/>
<path d="M2751 3191 l-24 -18 24 -6 c13 -3 25 -4 28 -2 2 3 -1 5 -8 5 -7 0 -9
5 -6 10 3 6 16 10 28 10 18 0 19 -2 7 -10 -12 -7 -12 -12 -2 -22 6 -6 12 -28
12 -48 0 -19 7 -45 14 -56 21 -30 16 -61 -14 -75 -18 -8 -21 -13 -11 -17 8 -3
28 10 46 30 37 40 61 52 71 36 4 -7 3 -8 -4 -4 -7 4 -12 3 -12 -3 0 -5 4 -12
8 -15 4 -3 8 -23 7 -45 -1 -23 3 -41 7 -41 4 0 8 22 8 49 l0 50 31 -4 c41 -6
46 -12 31 -35 -7 -11 -9 -20 -4 -20 4 0 13 9 20 20 7 11 21 20 32 20 11 0 20
5 20 10 0 25 20 6 43 -40 13 -27 27 -47 30 -44 6 7 -24 77 -35 82 -4 2 -4 10
-1 18 3 9 0 14 -8 12 -7 -2 -13 4 -14 12 0 8 -7 15 -15 15 -10 0 -15 -10 -15
-27 1 -23 -4 -28 -22 -28 -13 0 -23 5 -23 11 0 5 -4 8 -8 5 -5 -3 -19 6 -31
20 -18 21 -27 24 -56 18 -30 -5 -35 -3 -35 12 0 16 -2 17 -10 4 -8 -12 -10
-11 -10 8 0 12 -4 22 -10 22 -5 0 -7 7 -4 15 4 8 10 12 15 9 5 -3 6 2 3 10 -3
9 -10 14 -14 11 -4 -3 -13 9 -20 25 -14 34 -35 38 -69 11z"/>
<path d="M3090 3101 c0 -15 31 -42 41 -36 12 8 12 11 -7 29 -17 18 -34 21 -34
7z"/>
<path d="M2900 2900 c0 -5 7 -7 15 -4 8 4 15 8 15 10 0 2 -7 4 -15 4 -8 0 -15
-4 -15 -10z"/>
<path d="M2380 2510 c0 -5 5 -10 10 -10 6 0 10 5 10 10 0 6 -4 10 -10 10 -5 0
-10 -4 -10 -10z"/>
<path d="M2410 2490 c0 -5 5 -10 11 -10 5 0 7 5 4 10 -3 6 -8 10 -11 10 -2 0
-4 -4 -4 -10z"/>
<path d="M2773 2478 c-6 -7 -16 -30 -24 -50 -7 -21 -18 -38 -24 -38 -5 0 -2
-5 8 -11 9 -5 22 -7 29 -3 8 5 9 -4 5 -32 -5 -31 -4 -35 5 -20 6 11 8 42 4 77
-6 63 2 74 28 37 13 -18 16 -19 16 -5 0 9 -5 17 -10 17 -6 0 -14 9 -18 21 -7
17 -10 18 -19 7z"/>
<path d="M2520 2442 c0 -5 7 -15 15 -22 8 -7 15 -9 15 -6 0 4 -7 14 -15 22 -8
9 -15 11 -15 6z"/>
<path d="M2400 2399 c0 -23 3 -39 6 -36 11 10 13 67 3 73 -5 3 -9 -14 -9 -37z"/>
<path d="M2490 2431 c0 -6 5 -13 10 -16 6 -3 10 1 10 9 0 9 -4 16 -10 16 -5 0
-10 -4 -10 -9z"/>
<path d="M2065 2420 c-3 -5 -1 -10 4 -10 6 0 11 5 11 10 0 6 -2 10 -4 10 -3 0
-8 -4 -11 -10z"/>
<path d="M2686 2405 c-4 -10 -20 -15 -51 -15 -26 0 -45 -5 -45 -11 0 -7 11 -9
26 -6 17 3 32 -1 43 -12 20 -20 39 -7 33 22 -2 10 3 17 13 17 9 0 13 5 10 10
-9 15 -22 12 -29 -5z"/>
<path d="M2305 2370 c3 -5 8 -10 11 -10 2 0 4 5 4 10 0 6 -5 10 -11 10 -5 0
-7 -4 -4 -10z"/>
<path d="M2637 2340 c7 -25 23 -37 23 -17 0 8 -6 20 -14 26 -12 10 -13 8 -9
-9z"/>
<path d="M2103 2304 c16 -8 25 -20 21 -26 -5 -7 -2 -8 6 -3 10 6 8 12 -9 27
-13 10 -28 18 -35 18 -6 -1 2 -8 17 -16z"/>
<path d="M2380 2300 c0 -8 25 -20 43 -20 8 0 7 4 -1 12 -14 14 -42 20 -42 8z"/>
<path d="M1601 2243 c-7 -8 -11 -16 -8 -19 2 -2 10 2 17 11 17 20 9 27 -9 8z"/>
<path d="M2385 2190 c3 -5 8 -10 11 -10 2 0 4 5 4 10 0 6 -5 10 -11 10 -5 0
-7 -4 -4 -10z"/>
<path d="M3150 1999 c0 -5 5 -7 10 -4 6 3 10 8 10 11 0 2 -4 4 -10 4 -5 0 -10
-5 -10 -11z"/>
<path d="M2888 1473 c6 -2 18 -2 25 0 6 3 1 5 -13 5 -14 0 -19 -2 -12 -5z"/>
<path d="M2559 1437 c4 -5 32 -7 62 -5 l54 3 -62 5 c-34 3 -58 1 -54 -3z"/>
<path d="M2778 1439 c-13 -4 15 -7 62 -7 87 0 91 5 8 10 -26 2 -57 0 -70 -3z"/>
<path d="M2242 1406 c3 -14 2 -27 -1 -28 -4 -2 -16 -22 -28 -45 -14 -31 -17
-43 -8 -43 7 0 16 7 19 16 9 24 19 10 11 -15 -7 -22 -34 -27 -63 -12 -9 5 -56
10 -103 12 -66 3 -85 1 -82 -8 3 -7 16 -13 29 -13 13 0 24 -5 24 -11 0 -7 -10
-9 -27 -4 -43 10 -78 30 -76 42 2 11 -45 28 -53 20 -3 -2 14 -16 37 -32 32
-21 38 -29 28 -36 -11 -7 -9 -9 6 -9 18 -1 18 -2 -3 -10 -23 -10 -72 5 -72 22
0 4 -4 8 -10 8 -21 0 -9 -21 23 -40 21 -13 50 -20 84 -20 58 0 187 -18 218
-30 26 -11 214 -32 224 -25 5 2 34 0 65 -5 41 -7 63 -6 76 2 17 11 16 14 -18
37 -29 19 -54 26 -112 31 -84 6 -82 17 6 25 33 4 70 9 84 11 24 5 24 6 7 19
-11 8 -24 12 -30 10 -7 -2 -43 -6 -80 -10 -67 -6 -68 -5 -62 16 6 18 4 21 -9
16 -9 -4 -16 -2 -16 4 0 6 -7 18 -16 26 -8 9 -13 24 -11 34 3 11 1 19 -3 19
-5 0 -10 10 -12 23 -2 14 -11 23 -27 25 -21 3 -23 0 -19 -22z m11 -162 c43 -4
80 -11 84 -17 3 -6 1 -7 -5 -3 -6 3 -14 2 -17 -4 -6 -11 -177 -6 -235 6 -25 6
-25 6 -5 20 13 10 33 13 60 10 22 -3 75 -9 118 -12z"/>
<path d="M1463 1406 c8 -8 40 -16 80 -18 36 -1 63 0 59 3 -13 11 -89 29 -121
29 -28 0 -30 -2 -18 -14z"/>
<path d="M1655 1400 c-7 -12 12 -12 40 0 18 8 17 9 -7 9 -15 1 -30 -3 -33 -9z"/>
<path d="M1338 1393 c7 -3 16 -2 19 1 4 3 -2 6 -13 5 -11 0 -14 -3 -6 -6z"/>
<path d="M2326 1357 c3 -10 9 -15 12 -12 3 3 0 11 -7 18 -10 9 -11 8 -5 -6z"/>
<path d="M2563 1263 c9 -2 25 -2 35 0 9 3 1 5 -18 5 -19 0 -27 -2 -17 -5z"/>
<path d="M2088 1513 c6 -2 18 -2 25 0 6 3 1 5 -13 5 -14 0 -19 -2 -12 -5z"/>
<path d="M862 3718 c-7 -7 -12 -17 -12 -22 1 -19 207 -229 221 -224 7 2 17 11
23 20 7 13 -11 39 -90 127 -97 109 -118 123 -142 99z"/>
<path d="M3604 3596 c-60 -31 -124 -64 -141 -75 -61 -38 -31 -78 34 -47 l36
17 34 -33 c41 -40 49 -67 30 -104 -17 -35 -12 -54 14 -54 24 0 37 20 99 159
54 120 59 155 24 178 -19 12 -31 8 -130 -41z m87 -38 c-5 -13 -18 -42 -28 -65
l-20 -42 -32 33 -33 34 58 31 c33 16 60 30 61 31 1 0 -1 -10 -6 -22z"/>
<path d="M765 3621 c-4 -13 15 -56 54 -127 33 -60 59 -110 57 -111 -2 -2 -54
15 -116 37 -62 22 -121 38 -131 35 -23 -8 -33 -36 -17 -51 18 -18 293 -95 312
-88 36 14 29 46 -40 186 -57 115 -72 138 -91 138 -12 0 -24 -8 -28 -19z"/>
<path d="M3843 3457 c-26 -29 -148 -199 -162 -225 -12 -23 -6 -48 14 -56 8 -3
62 13 122 34 59 22 108 38 109 37 2 -1 -33 -45 -77 -97 -44 -52 -78 -101 -77
-109 7 -35 35 -36 150 -7 192 49 180 44 176 74 -4 37 -29 39 -133 6 -47 -14
-87 -25 -89 -23 -2 2 27 40 65 83 71 81 76 93 59 127 -15 27 -42 24 -143 -15
-48 -19 -87 -33 -87 -30 0 2 29 41 65 87 68 86 77 110 46 126 -14 8 -23 5 -38
-12z"/>
<path d="M545 3302 c-42 -27 -61 -50 -86 -106 -52 -117 22 -226 153 -226 116
0 202 144 149 248 -42 82 -152 125 -216 84z m105 -67 c67 -35 90 -107 49 -159
-30 -38 -58 -47 -108 -34 -77 20 -111 90 -76 158 26 51 78 64 135 35z"/>
<path d="M378 2960 c-28 -17 -54 -71 -83 -169 -23 -80 -25 -95 -13 -107 16
-16 218 -73 260 -74 18 0 29 6 33 20 9 29 -8 45 -60 60 -55 15 -60 23 -45 60
12 29 31 40 114 62 53 14 73 35 62 63 -5 14 -14 16 -49 11 -23 -4 -55 -14 -71
-22 -38 -18 -36 -19 -36 21 0 62 -62 104 -112 75z m61 -89 c7 -13 5 -37 -7
-82 -19 -68 -22 -70 -77 -49 -23 9 -23 10 -9 56 26 87 69 122 93 75z"/>
<path d="M3873 2933 c-24 -5 -35 -25 -27 -48 4 -10 20 -15 49 -15 l43 0 22
-66 22 -66 -33 -34 c-27 -28 -31 -38 -23 -51 6 -9 16 -19 23 -21 16 -5 230
206 237 235 4 14 -1 34 -10 48 -17 26 -18 26 -149 24 -73 -2 -142 -4 -154 -6z
m237 -63 c0 -3 -20 -26 -45 -50 -32 -31 -46 -39 -49 -29 -3 8 -10 27 -16 42
-5 16 -8 32 -5 37 6 10 115 10 115 0z"/>
<path d="M4089 2616 c-135 -39 -139 -41 -139 -67 0 -31 25 -33 121 -12 49 11
89 18 89 16 0 -3 -38 -48 -85 -101 -90 -102 -106 -132 -84 -158 11 -14 29 -15
114 -10 156 10 184 16 190 37 3 10 1 28 -5 40 -9 17 -18 20 -43 15 -18 -2 -63
-8 -101 -12 l-68 -7 91 108 c92 109 108 144 79 173 -17 17 -28 15 -159 -22z"/>
<path d="M284 2579 c-11 -6 -29 -24 -38 -41 -20 -33 -50 -220 -41 -250 8 -24
27 -27 175 -30 l125 -3 3 33 c4 35 1 37 -69 47 l-45 6 9 70 c13 95 -1 145 -48
165 -39 16 -43 16 -71 3z m67 -100 c7 -14 8 -41 4 -76 l-7 -54 -46 3 -47 3 3
40 c6 66 27 105 56 105 16 0 30 -8 37 -21z"/>
<path d="M4094 2063 c-3 -16 -10 -43 -16 -60 l-10 -33 -75 0 c-74 0 -76 -1
-59 -19 9 -10 37 -31 61 -46 l43 -28 -24 -64 c-13 -35 -24 -66 -24 -69 0 -2
27 14 60 36 l60 41 62 -42 c44 -31 59 -37 53 -23 -37 91 -44 119 -31 129 8 6
36 26 62 45 l49 35 -77 3 -77 3 -17 59 c-18 65 -30 75 -40 33z"/>
<path d="M376 2053 c-3 -10 -10 -37 -16 -60 l-11 -43 -77 0 -77 -1 32 -27 c18
-15 45 -37 60 -48 l28 -22 -19 -53 c-11 -30 -21 -60 -24 -68 -3 -8 22 5 56 28
l62 42 60 -41 60 -41 -20 53 c-29 77 -27 88 30 126 28 17 50 37 50 42 0 6 -30
10 -69 10 -74 0 -75 0 -86 60 -11 60 -28 78 -39 43z"/>
<path d="M530 1482 c-19 -9 -45 -33 -58 -52 -20 -30 -23 -44 -19 -91 9 -107
82 -218 157 -240 33 -10 44 -9 84 10 58 29 88 76 88 140 0 89 -65 200 -136
232 -51 23 -72 24 -116 1z m145 -93 c71 -63 64 -160 -16 -203 -32 -17 -40 -18
-68 -6 -70 29 -104 138 -61 193 43 55 94 60 145 16z"/>
<path d="M4026 1448 c-8 -13 -31 -62 -51 -110 -21 -49 -41 -88 -45 -88 -5 0
-52 19 -105 42 -105 46 -127 45 -133 -5 -3 -25 5 -31 112 -84 115 -57 116 -57
135 -38 26 26 121 247 121 279 0 32 -15 33 -34 4z"/>
<path d="M773 1077 c-95 -85 -109 -104 -98 -136 12 -40 44 -36 90 9 l44 43 51
-57 c53 -57 76 -68 87 -40 4 10 -13 34 -51 73 l-56 57 28 27 28 27 61 -60 c64
-63 80 -70 90 -44 4 11 -20 42 -78 100 -46 46 -88 84 -94 84 -5 0 -51 -37
-102 -83z"/>
<path d="M3541 1083 c-12 -10 -23 -27 -23 -38 -3 -29 94 -284 109 -289 6 -3
22 3 35 13 21 18 22 22 11 62 -11 42 -11 43 40 110 50 65 54 68 95 68 44 1 82
27 82 56 0 22 -6 23 -176 29 -135 6 -154 4 -173 -11z m132 -59 l46 -7 -37 -48
c-20 -26 -40 -48 -43 -49 -4 0 -15 21 -25 47 -11 27 -20 51 -22 55 -4 10 20
10 81 2z"/>
<path d="M1078 912 c-48 -51 -148 -196 -148 -213 0 -25 39 -50 59 -39 9 4 27
27 41 49 14 23 29 41 33 41 5 0 34 -18 64 -40 58 -41 77 -48 88 -29 9 14 -18
42 -76 80 -27 17 -49 34 -49 38 0 3 11 19 23 35 l24 29 65 -46 c70 -50 98 -58
98 -29 0 12 -29 39 -77 74 -116 82 -116 82 -145 50z"/>
<path d="M3268 829 c-54 -39 -98 -78 -98 -86 0 -17 115 -177 150 -208 16 -14
25 -16 43 -8 42 19 227 173 227 188 0 29 -36 14 -117 -50 -46 -36 -87 -65 -92
-65 -5 0 -20 14 -32 31 -22 31 -22 32 -3 46 84 61 135 106 131 116 -8 26 -37
16 -106 -39 l-73 -57 -26 27 -27 27 21 17 c12 9 47 36 78 60 56 43 72 72 39
72 -10 0 -62 -32 -115 -71z"/>
<path d="M1361 746 c-21 -25 -121 -237 -121 -257 0 -28 46 -48 65 -28 18 18
115 236 115 258 0 35 -38 53 -59 27z"/>
<path d="M2963 659 c-55 -21 -103 -68 -103 -100 0 -11 11 -31 25 -44 28 -29
74 -32 170 -12 75 16 95 12 95 -18 0 -52 -93 -90 -149 -60 -42 21 -75 16 -79
-12 -7 -45 90 -67 171 -39 125 45 177 149 95 192 -28 15 -37 15 -118 -1 -99
-19 -133 -17 -138 7 -5 27 55 60 98 53 73 -12 84 -11 88 9 10 47 -67 59 -155
25z"/>
<path d="M1542 650 c-90 -21 -142 -142 -98 -228 29 -57 131 -112 207 -112 62
0 133 50 114 80 -17 28 -44 30 -73 5 -53 -45 -145 -26 -177 35 -19 37 -19 56
4 106 22 48 63 70 115 60 35 -7 86 -55 86 -81 0 -19 34 -37 54 -29 56 22 -47
145 -133 160 -20 3 -43 7 -51 9 -8 1 -30 -1 -48 -5z"/>
<path d="M1883 558 c-17 -22 -48 -287 -36 -299 12 -12 60 -16 70 -6 12 13 33
279 22 298 -11 22 -42 25 -56 7z"/>
<path d="M2141 523 c-12 -8 -21 -18 -21 -22 0 -5 -29 -60 -65 -123 -36 -64
-65 -120 -65 -126 0 -17 38 -34 59 -27 10 3 27 21 37 41 17 31 23 35 48 30 16
-3 54 -6 85 -6 54 0 57 -1 75 -35 10 -19 27 -37 37 -40 26 -8 59 3 59 20 0 8
-40 76 -88 151 -94 147 -118 168 -161 137z m72 -118 c15 -31 27 -58 27 -60 0
-3 -25 -5 -55 -5 -30 0 -55 3 -55 7 0 14 44 113 50 113 3 0 18 -25 33 -55z"/>
<path d="M2420 525 c-10 -12 -8 -40 10 -142 12 -70 25 -133 27 -140 7 -17 54
-16 177 3 103 16 141 33 119 55 -11 11 -80 5 -193 -17 -25 -4 -26 -2 -49 107
-29 132 -57 175 -91 134z"/>
</g>
</svg>
